# xmcd CD database file
#
# Track frame offsets:
#	150
#	20388
#	38505
#	53928
#	73211
#	91675
#	108152
#	125428
#	146790
#	168553
#	184743
#	202243
#	220337
#	238393
#
# Disc length: 4144 seconds
#
# Revision: 0
# Processed by: cddbd v1.5.1PL0 Copyright (c) Steve Scherf et al.
# Submitted via: CDex 1.51
#
DISCID=d1102e0e
DTITLE=Various Artist - CIAO Italia
DYEAR=90
DGENRE=Salsa
TTITLE0=AIL BANO,ROMINA POWER-Sharazan
TTITLE1=AMANDA LEAR-Blood And Honey
TTITLE2=AL BANO? ROMINA POWER-Nostalgia canaglia
TTITLE3=TOTO CUTUGNO-La Mia Musica
TTITLE4=UMBRETO TOZZI-Tu
TTITLE5=AL BANO? ROMINA POWER-Ci Sara
TTITLE6=ADRIANO CELENTATO-II Tempo Se Ne va
TTITLE7=DRUPI-Sereno e
TTITLE8=EROS RAMAZZOTI-Cose Della Vita
TTITLE9=FLAVIO FORTUNATO-Nuovo Amore
TTITLE10=UMBRETO TOZZI-Ti Amo
TTITLE11=AL BANO? ROMINA POWER-Sempre,Sempre
TTITLE12=AMANDA LEAR-Queen Of CHinatown
TTITLE13=FRANCESCO NAPOLI-Balla...balla - Megamix
EXTD=YEAR: 90
EXTT0=
EXTT1=
EXTT2=
EXTT3=
EXTT4=
EXTT5=
EXTT6=
EXTT7=
EXTT8=
EXTT9=
EXTT10=
EXTT11=
EXTT12=
EXTT13=
PLAYORDER=
